<?xml version="1.0" encoding="us-ascii" standalone="no"?><svg xmlns="http://www.w3.org/2000/svg" xmlns:xlink="http://www.w3.org/1999/xlink" contentStyleType="text/css" height="1004px" preserveAspectRatio="none" style="width:728px;height:1004px;background:#FFFFFF;" version="1.1" viewBox="0 0 728 1004" width="728px" zoomAndPan="magnify"><defs/><g><ellipse cx="347.125" cy="20" fill="#222222" rx="10" ry="10" style="stroke:#222222;stroke-width:1.0;"/><rect fill="#F1F1F1" height="33.9688" rx="12.5" ry="12.5" style="stroke:#181818;stroke-width:0.5;" width="143" x="275.625" y="50"/><text fill="#000000" font-family="sans-serif" font-size="12" lengthAdjust="spacing" textLength="123" x="285.625" y="71.1387">Kay&#305;tTamamlanmad&#305;</text><rect fill="#F1F1F1" height="33.9688" rx="12.5" ry="12.5" style="stroke:#181818;stroke-width:0.5;" width="92" x="301.125" y="103.9688"/><text fill="#000000" font-family="sans-serif" font-size="12" lengthAdjust="spacing" textLength="72" x="311.125" y="125.1074">SistemGiri&#351;i</text><polygon fill="#F1F1F1" points="301.125,157.9375,393.125,157.9375,405.125,169.9375,393.125,181.9375,301.125,181.9375,289.125,169.9375,301.125,157.9375" style="stroke:#181818;stroke-width:0.5;"/><text fill="#000000" font-family="sans-serif" font-size="11" lengthAdjust="spacing" textLength="92" x="301.125" y="173.7456">Kurs Tipi Se&#231;imi</text><text fill="#000000" font-family="sans-serif" font-size="11" lengthAdjust="spacing" textLength="24" x="265.125" y="167.3433">Evet</text><text fill="#000000" font-family="sans-serif" font-size="11" lengthAdjust="spacing" textLength="29" x="405.125" y="167.3433">Hay&#305;r</text><rect fill="#F1F1F1" height="33.9688" rx="12.5" ry="12.5" style="stroke:#181818;stroke-width:0.5;" width="108" x="116" y="191.9375"/><text fill="#000000" font-family="sans-serif" font-size="12" lengthAdjust="spacing" textLength="88" x="126" y="213.0762">KursTipiSe&#231;imi</text><rect fill="#F1F1F1" height="33.9688" rx="12.5" ry="12.5" style="stroke:#181818;stroke-width:0.5;" width="153" x="93.5" y="245.9063"/><text fill="#000000" font-family="sans-serif" font-size="12" lengthAdjust="spacing" textLength="133" x="103.5" y="267.0449">SistemKurslar&#305;Listeler</text><polygon fill="#F1F1F1" points="104.5,299.875,235.5,299.875,247.5,311.875,235.5,323.875,104.5,323.875,92.5,311.875,104.5,299.875" style="stroke:#181818;stroke-width:0.5;"/><text fill="#000000" font-family="sans-serif" font-size="11" lengthAdjust="spacing" textLength="131" x="104.5" y="315.6831">Uygun Kurs Bulunamaz</text><text fill="#000000" font-family="sans-serif" font-size="11" lengthAdjust="spacing" textLength="29" x="63.5" y="309.2808">Hay&#305;r</text><text fill="#000000" font-family="sans-serif" font-size="11" lengthAdjust="spacing" textLength="24" x="247.5" y="309.2808">Evet</text><rect fill="#F1F1F1" height="33.9688" rx="12.5" ry="12.5" style="stroke:#181818;stroke-width:0.5;" width="64" x="50.5" y="333.875"/><text fill="#000000" font-family="sans-serif" font-size="12" lengthAdjust="spacing" textLength="44" x="60.5" y="355.0137">&#214;deme</text><rect fill="#F1F1F1" height="33.9688" rx="12.5" ry="12.5" style="stroke:#181818;stroke-width:0.5;" width="143" x="11" y="402.8438"/><text fill="#000000" font-family="sans-serif" font-size="12" lengthAdjust="spacing" textLength="123" x="21" y="423.9824">Kay&#305;tTamamlanmad&#305;</text><rect fill="#F1F1F1" height="33.9688" rx="12.5" ry="12.5" style="stroke:#181818;stroke-width:0.5;" width="86" x="214.5" y="333.875"/><text fill="#000000" font-family="sans-serif" font-size="12" lengthAdjust="spacing" textLength="66" x="224.5" y="355.0137">KursListesi</text><polygon fill="#F1F1F1" points="170,442.8125,182,454.8125,170,466.8125,158,454.8125,170,442.8125" style="stroke:#181818;stroke-width:0.5;"/><rect fill="#F1F1F1" height="33.9688" rx="12.5" ry="12.5" style="stroke:#181818;stroke-width:0.5;" width="148" x="450.25" y="191.9375"/><text fill="#000000" font-family="sans-serif" font-size="12" lengthAdjust="spacing" textLength="128" x="460.25" y="213.0762">KursProgram&#305;Olu&#351;tur</text><rect fill="#F1F1F1" height="33.9688" rx="12.5" ry="12.5" style="stroke:#181818;stroke-width:0.5;" width="108" x="470.25" y="245.9063"/><text fill="#000000" font-family="sans-serif" font-size="12" lengthAdjust="spacing" textLength="88" x="480.25" y="267.0449">KursTipiSe&#231;ildi</text><rect fill="#F1F1F1" height="33.9688" rx="12.5" ry="12.5" style="stroke:#181818;stroke-width:0.5;" width="168" x="440.25" y="299.875"/><text fill="#000000" font-family="sans-serif" font-size="12" lengthAdjust="spacing" textLength="148" x="450.25" y="321.0137">UygunSanatlarListelenir</text><rect fill="#F1F1F1" height="33.9688" rx="12.5" ry="12.5" style="stroke:#181818;stroke-width:0.5;" width="97" x="475.75" y="368.8438"/><text fill="#000000" font-family="sans-serif" font-size="12" lengthAdjust="spacing" textLength="77" x="485.75" y="389.9824">SanatSe&#231;imi</text><rect fill="#F1F1F1" height="33.9688" rx="12.5" ry="12.5" style="stroke:#181818;stroke-width:0.5;" width="122" x="463.25" y="437.8125"/><text fill="#000000" font-family="sans-serif" font-size="12" lengthAdjust="spacing" textLength="102" x="473.25" y="458.9512">&#214;&#287;retmenAtama</text><polygon fill="#F1F1F1" points="459.25,491.7813,589.25,491.7813,601.25,503.7813,589.25,515.7813,459.25,515.7813,447.25,503.7813,459.25,491.7813" style="stroke:#181818;stroke-width:0.5;"/><text fill="#000000" font-family="sans-serif" font-size="11" lengthAdjust="spacing" textLength="130" x="459.25" y="507.5894">&#214;&#287;retmen M&#252;sait De&#287;il</text><text fill="#000000" font-family="sans-serif" font-size="11" lengthAdjust="spacing" textLength="29" x="418.25" y="501.187">Hay&#305;r</text><text fill="#000000" font-family="sans-serif" font-size="11" lengthAdjust="spacing" textLength="24" x="601.25" y="501.187">Evet</text><rect fill="#F1F1F1" height="33.9688" rx="12.5" ry="12.5" style="stroke:#181818;stroke-width:0.5;" width="169" x="340.5" y="525.7813"/><text fill="#000000" font-family="sans-serif" font-size="12" lengthAdjust="spacing" textLength="149" x="350.5" y="546.9199">Alternatif&#214;&#287;retmen&#214;ner</text><rect fill="#F1F1F1" height="33.9688" rx="12.5" ry="12.5" style="stroke:#181818;stroke-width:0.5;" width="188" x="529.5" y="525.7813"/><text fill="#000000" font-family="sans-serif" font-size="12" lengthAdjust="spacing" textLength="168" x="539.5" y="546.9199">&#214;&#287;retmenM&#252;saitlikKontrol&#252;</text><rect fill="#F1F1F1" height="33.9688" rx="12.5" ry="12.5" style="stroke:#181818;stroke-width:0.5;" width="114" x="566.5" y="579.75"/><text fill="#000000" font-family="sans-serif" font-size="12" lengthAdjust="spacing" textLength="94" x="576.5" y="600.8887">MaliyetHesapla</text><rect fill="#F1F1F1" height="33.9688" rx="12.5" ry="12.5" style="stroke:#181818;stroke-width:0.5;" width="107" x="570" y="633.7188"/><text fill="#000000" font-family="sans-serif" font-size="12" lengthAdjust="spacing" textLength="87" x="580" y="654.8574">ProgramOnay&#305;</text><polygon fill="#F1F1F1" points="524.25,673.6875,536.25,685.6875,524.25,697.6875,512.25,685.6875,524.25,673.6875" style="stroke:#181818;stroke-width:0.5;"/><rect fill="#F1F1F1" height="33.9688" rx="12.5" ry="12.5" style="stroke:#181818;stroke-width:0.5;" width="114" x="467.25" y="717.6875"/><text fill="#000000" font-family="sans-serif" font-size="12" lengthAdjust="spacing" textLength="94" x="477.25" y="738.8262">&#214;&#287;retmenKayd&#305;</text><rect fill="#F1F1F1" height="33.9688" rx="12.5" ry="12.5" style="stroke:#181818;stroke-width:0.5;" width="160" x="444.25" y="771.6563"/><text fill="#000000" font-family="sans-serif" font-size="12" lengthAdjust="spacing" textLength="140" x="454.25" y="792.7949">&#214;&#287;retmenBilgileriGirildi</text><polygon fill="#F1F1F1" points="494.25,825.625,554.25,825.625,566.25,837.625,554.25,849.625,494.25,849.625,482.25,837.625,494.25,825.625" style="stroke:#181818;stroke-width:0.5;"/><text fill="#000000" font-family="sans-serif" font-size="11" lengthAdjust="spacing" textLength="60" x="494.25" y="841.4331">Yanl&#305;&#351; Veri</text><text fill="#000000" font-family="sans-serif" font-size="11" lengthAdjust="spacing" textLength="24" x="458.25" y="835.0308">Evet</text><text fill="#000000" font-family="sans-serif" font-size="11" lengthAdjust="spacing" textLength="29" x="566.25" y="835.0308">Hay&#305;r</text><rect fill="#F1F1F1" height="33.9688" rx="12.5" ry="12.5" style="stroke:#181818;stroke-width:0.5;" width="120" x="397.5" y="859.625"/><text fill="#000000" font-family="sans-serif" font-size="12" lengthAdjust="spacing" textLength="100" x="407.5" y="880.7637">D&#252;zeltmeGerekli</text><rect fill="#F1F1F1" height="33.9688" rx="12.5" ry="12.5" style="stroke:#181818;stroke-width:0.5;" width="107" x="537.5" y="859.625"/><text fill="#000000" font-family="sans-serif" font-size="12" lengthAdjust="spacing" textLength="87" x="547.5" y="880.7637">KaydetBa&#351;ar&#305;l&#305;</text><polygon fill="#F1F1F1" points="524.25,899.5938,536.25,911.5938,524.25,923.5938,512.25,911.5938,524.25,899.5938" style="stroke:#181818;stroke-width:0.5;"/><polygon fill="#F1F1F1" points="347.125,929.5938,359.125,941.5938,347.125,953.5938,335.125,941.5938,347.125,929.5938" style="stroke:#181818;stroke-width:0.5;"/><ellipse cx="347.125" cy="983.5938" fill="none" rx="10" ry="10" style="stroke:#222222;stroke-width:1.5;"/><line style="stroke:#222222;stroke-width:2.5;" x1="340.9378" x2="353.3122" y1="977.4066" y2="989.7809"/><line style="stroke:#222222;stroke-width:2.5;" x1="353.3122" x2="340.9378" y1="977.4066" y2="989.7809"/><line style="stroke:#181818;stroke-width:1.0;" x1="347.125" x2="347.125" y1="30" y2="50"/><polygon fill="#181818" points="343.125,40,347.125,50,351.125,40,347.125,44" style="stroke:#181818;stroke-width:1.0;"/><line style="stroke:#181818;stroke-width:1.0;" x1="347.125" x2="347.125" y1="83.9688" y2="103.9688"/><polygon fill="#181818" points="343.125,93.9688,347.125,103.9688,351.125,93.9688,347.125,97.9688" style="stroke:#181818;stroke-width:1.0;"/><line style="stroke:#181818;stroke-width:1.0;" x1="170" x2="170" y1="225.9063" y2="245.9063"/><polygon fill="#181818" points="166,235.9063,170,245.9063,174,235.9063,170,239.9063" style="stroke:#181818;stroke-width:1.0;"/><line style="stroke:#181818;stroke-width:1.0;" x1="82.5" x2="82.5" y1="367.8438" y2="402.8438"/><polygon fill="#181818" points="78.5,392.8438,82.5,402.8438,86.5,392.8438,82.5,396.8438" style="stroke:#181818;stroke-width:1.0;"/><line style="stroke:#181818;stroke-width:1.0;" x1="92.5" x2="82.5" y1="311.875" y2="311.875"/><line style="stroke:#181818;stroke-width:1.0;" x1="82.5" x2="82.5" y1="311.875" y2="333.875"/><polygon fill="#181818" points="78.5,323.875,82.5,333.875,86.5,323.875,82.5,327.875" style="stroke:#181818;stroke-width:1.0;"/><line style="stroke:#181818;stroke-width:1.0;" x1="247.5" x2="257.5" y1="311.875" y2="311.875"/><line style="stroke:#181818;stroke-width:1.0;" x1="257.5" x2="257.5" y1="311.875" y2="333.875"/><polygon fill="#181818" points="253.5,323.875,257.5,333.875,261.5,323.875,257.5,327.875" style="stroke:#181818;stroke-width:1.0;"/><line style="stroke:#181818;stroke-width:1.0;" x1="82.5" x2="82.5" y1="436.8125" y2="454.8125"/><line style="stroke:#181818;stroke-width:1.0;" x1="82.5" x2="158" y1="454.8125" y2="454.8125"/><polygon fill="#181818" points="148,450.8125,158,454.8125,148,458.8125,152,454.8125" style="stroke:#181818;stroke-width:1.0;"/><line style="stroke:#181818;stroke-width:1.0;" x1="257.5" x2="257.5" y1="367.8438" y2="454.8125"/><line style="stroke:#181818;stroke-width:1.0;" x1="257.5" x2="182" y1="454.8125" y2="454.8125"/><polygon fill="#181818" points="192,450.8125,182,454.8125,192,458.8125,188,454.8125" style="stroke:#181818;stroke-width:1.0;"/><line style="stroke:#181818;stroke-width:1.0;" x1="170" x2="170" y1="279.875" y2="299.875"/><polygon fill="#181818" points="166,289.875,170,299.875,174,289.875,170,293.875" style="stroke:#181818;stroke-width:1.0;"/><line style="stroke:#181818;stroke-width:1.0;" x1="524.25" x2="524.25" y1="225.9063" y2="245.9063"/><polygon fill="#181818" points="520.25,235.9063,524.25,245.9063,528.25,235.9063,524.25,239.9063" style="stroke:#181818;stroke-width:1.0;"/><line style="stroke:#181818;stroke-width:1.0;" x1="524.25" x2="524.25" y1="279.875" y2="299.875"/><polygon fill="#181818" points="520.25,289.875,524.25,299.875,528.25,289.875,524.25,293.875" style="stroke:#181818;stroke-width:1.0;"/><line style="stroke:#181818;stroke-width:1.0;" x1="524.25" x2="524.25" y1="333.8438" y2="368.8438"/><polygon fill="#181818" points="520.25,358.8438,524.25,368.8438,528.25,358.8438,524.25,362.8438" style="stroke:#181818;stroke-width:1.0;"/><line style="stroke:#181818;stroke-width:1.0;" x1="524.25" x2="524.25" y1="402.8125" y2="437.8125"/><polygon fill="#181818" points="520.25,427.8125,524.25,437.8125,528.25,427.8125,524.25,431.8125" style="stroke:#181818;stroke-width:1.0;"/><line style="stroke:#181818;stroke-width:1.0;" x1="623.5" x2="623.5" y1="559.75" y2="579.75"/><polygon fill="#181818" points="619.5,569.75,623.5,579.75,627.5,569.75,623.5,573.75" style="stroke:#181818;stroke-width:1.0;"/><line style="stroke:#181818;stroke-width:1.0;" x1="623.5" x2="623.5" y1="613.7188" y2="633.7188"/><polygon fill="#181818" points="619.5,623.7188,623.5,633.7188,627.5,623.7188,623.5,627.7188" style="stroke:#181818;stroke-width:1.0;"/><line style="stroke:#181818;stroke-width:1.0;" x1="447.25" x2="425" y1="503.7813" y2="503.7813"/><line style="stroke:#181818;stroke-width:1.0;" x1="425" x2="425" y1="503.7813" y2="525.7813"/><polygon fill="#181818" points="421,515.7813,425,525.7813,429,515.7813,425,519.7813" style="stroke:#181818;stroke-width:1.0;"/><line style="stroke:#181818;stroke-width:1.0;" x1="601.25" x2="623.5" y1="503.7813" y2="503.7813"/><line style="stroke:#181818;stroke-width:1.0;" x1="623.5" x2="623.5" y1="503.7813" y2="525.7813"/><polygon fill="#181818" points="619.5,515.7813,623.5,525.7813,627.5,515.7813,623.5,519.7813" style="stroke:#181818;stroke-width:1.0;"/><line style="stroke:#181818;stroke-width:1.0;" x1="425" x2="425" y1="559.75" y2="685.6875"/><line style="stroke:#181818;stroke-width:1.0;" x1="425" x2="512.25" y1="685.6875" y2="685.6875"/><polygon fill="#181818" points="502.25,681.6875,512.25,685.6875,502.25,689.6875,506.25,685.6875" style="stroke:#181818;stroke-width:1.0;"/><line style="stroke:#181818;stroke-width:1.0;" x1="623.5" x2="623.5" y1="667.6875" y2="685.6875"/><line style="stroke:#181818;stroke-width:1.0;" x1="623.5" x2="536.25" y1="685.6875" y2="685.6875"/><polygon fill="#181818" points="546.25,681.6875,536.25,685.6875,546.25,689.6875,542.25,685.6875" style="stroke:#181818;stroke-width:1.0;"/><line style="stroke:#181818;stroke-width:1.0;" x1="524.25" x2="524.25" y1="471.7813" y2="491.7813"/><polygon fill="#181818" points="520.25,481.7813,524.25,491.7813,528.25,481.7813,524.25,485.7813" style="stroke:#181818;stroke-width:1.0;"/><line style="stroke:#181818;stroke-width:1.0;" x1="524.25" x2="524.25" y1="697.6875" y2="717.6875"/><polygon fill="#181818" points="520.25,707.6875,524.25,717.6875,528.25,707.6875,524.25,711.6875" style="stroke:#181818;stroke-width:1.0;"/><line style="stroke:#181818;stroke-width:1.0;" x1="524.25" x2="524.25" y1="751.6563" y2="771.6563"/><polygon fill="#181818" points="520.25,761.6563,524.25,771.6563,528.25,761.6563,524.25,765.6563" style="stroke:#181818;stroke-width:1.0;"/><line style="stroke:#181818;stroke-width:1.0;" x1="482.25" x2="457.5" y1="837.625" y2="837.625"/><line style="stroke:#181818;stroke-width:1.0;" x1="457.5" x2="457.5" y1="837.625" y2="859.625"/><polygon fill="#181818" points="453.5,849.625,457.5,859.625,461.5,849.625,457.5,853.625" style="stroke:#181818;stroke-width:1.0;"/><line style="stroke:#181818;stroke-width:1.0;" x1="566.25" x2="591" y1="837.625" y2="837.625"/><line style="stroke:#181818;stroke-width:1.0;" x1="591" x2="591" y1="837.625" y2="859.625"/><polygon fill="#181818" points="587,849.625,591,859.625,595,849.625,591,853.625" style="stroke:#181818;stroke-width:1.0;"/><line style="stroke:#181818;stroke-width:1.0;" x1="457.5" x2="457.5" y1="893.5938" y2="911.5938"/><line style="stroke:#181818;stroke-width:1.0;" x1="457.5" x2="512.25" y1="911.5938" y2="911.5938"/><polygon fill="#181818" points="502.25,907.5938,512.25,911.5938,502.25,915.5938,506.25,911.5938" style="stroke:#181818;stroke-width:1.0;"/><line style="stroke:#181818;stroke-width:1.0;" x1="591" x2="591" y1="893.5938" y2="911.5938"/><line style="stroke:#181818;stroke-width:1.0;" x1="591" x2="536.25" y1="911.5938" y2="911.5938"/><polygon fill="#181818" points="546.25,907.5938,536.25,911.5938,546.25,915.5938,542.25,911.5938" style="stroke:#181818;stroke-width:1.0;"/><line style="stroke:#181818;stroke-width:1.0;" x1="524.25" x2="524.25" y1="805.625" y2="825.625"/><polygon fill="#181818" points="520.25,815.625,524.25,825.625,528.25,815.625,524.25,819.625" style="stroke:#181818;stroke-width:1.0;"/><line style="stroke:#181818;stroke-width:1.0;" x1="289.125" x2="170" y1="169.9375" y2="169.9375"/><line style="stroke:#181818;stroke-width:1.0;" x1="170" x2="170" y1="169.9375" y2="191.9375"/><polygon fill="#181818" points="166,181.9375,170,191.9375,174,181.9375,170,185.9375" style="stroke:#181818;stroke-width:1.0;"/><line style="stroke:#181818;stroke-width:1.0;" x1="405.125" x2="524.25" y1="169.9375" y2="169.9375"/><line style="stroke:#181818;stroke-width:1.0;" x1="524.25" x2="524.25" y1="169.9375" y2="191.9375"/><polygon fill="#181818" points="520.25,181.9375,524.25,191.9375,528.25,181.9375,524.25,185.9375" style="stroke:#181818;stroke-width:1.0;"/><line style="stroke:#181818;stroke-width:1.0;" x1="170" x2="170" y1="466.8125" y2="941.5938"/><line style="stroke:#181818;stroke-width:1.0;" x1="170" x2="335.125" y1="941.5938" y2="941.5938"/><polygon fill="#181818" points="325.125,937.5938,335.125,941.5938,325.125,945.5938,329.125,941.5938" style="stroke:#181818;stroke-width:1.0;"/><line style="stroke:#181818;stroke-width:1.0;" x1="524.25" x2="524.25" y1="923.5938" y2="941.5938"/><line style="stroke:#181818;stroke-width:1.0;" x1="524.25" x2="359.125" y1="941.5938" y2="941.5938"/><polygon fill="#181818" points="369.125,937.5938,359.125,941.5938,369.125,945.5938,365.125,941.5938" style="stroke:#181818;stroke-width:1.0;"/><line style="stroke:#181818;stroke-width:1.0;" x1="347.125" x2="347.125" y1="137.9375" y2="157.9375"/><polygon fill="#181818" points="343.125,147.9375,347.125,157.9375,351.125,147.9375,347.125,151.9375" style="stroke:#181818;stroke-width:1.0;"/><line style="stroke:#181818;stroke-width:1.0;" x1="347.125" x2="347.125" y1="953.5938" y2="973.5938"/><polygon fill="#181818" points="343.125,963.5938,347.125,973.5938,351.125,963.5938,347.125,967.5938" style="stroke:#181818;stroke-width:1.0;"/><!--SRC=[RPAnRi8m48RtF8N7yWfa0b61H16Le9KwdfI3dZWRv5mgmOEmPkoSdIt9UzLEJ0qjIoJVdR_x_p_E1QmampaScqhMe44p60rPKwN9S4Mve9wIfRQaDA6DUfeNDbThEf1QOVrDcWPAFj6ef-Slb46YrD1F-87GJtsj1_aEWssg5tzajBxdeM_7RM5KXnuNN1WdutJbphmowycEKvypr9ZsXuUQbKBECSe9WhgDUIS6JKQRf9-Ay6xgrUwt5dHJBRbeIoawWVU6EEiTTP9NO42Se-37K7-XAz_QhyzDQL4qcf4ukLVRiQmMzIK74ZN1fYH-w7t4WjQ1QHFlrMVJf_ZFT9m9QARTV6_4xhc-X00Nm7H4cM4E1uPG31aiZTyTyxf3kkH3s3V5CV6Mt4yb_rv2JDxb1nXkghPKxwxtzxKumgI-d90TOOeMTqpHpfrzlnDb36tfNn3VQllz_W00]--></g></svg>